<svg width="30" height="49" viewBox="0 0 30 49" fill="none" xmlns="http://www.w3.org/2000/svg">
<path d="M2.10938 0.226562H4.57031V2.6875H2.10938V0.226562ZM11.9531 0.226562H14.4141V2.6875H11.9531V0.226562ZM21.7734 0.226562H24.2344V2.6875H21.7734V0.226562ZM7.03125 5.14844H9.49219V7.60938H7.03125V5.14844ZM16.875 5.14844H19.3125V7.60938H16.875V5.14844ZM26.6953 5.14844H29.1562V7.60938H26.6953V5.14844ZM21.7734 10.0703H24.2344V12.5078H21.7734V10.0703ZM11.9531 10.0703H14.4141V12.5078H11.9531V10.0703ZM2.10938 10.0703H4.57031V12.5078H2.10938V10.0703ZM26.6953 14.9688H29.1562V17.4297H26.6953V14.9688ZM16.875 14.9688H19.3125V17.4297H16.875V14.9688ZM7.03125 14.9688H9.49219V17.4297H7.03125V14.9688ZM2.10938 19.8906H4.57031V22.3516H2.10938V19.8906ZM11.9531 19.8906H14.4141V22.3516H11.9531V19.8906ZM21.7734 19.8906H24.2344V22.3516H21.7734V19.8906ZM26.6953 24.8125H29.1562V27.2734H26.6953V24.8125ZM16.875 24.8125H19.3125V27.2734H16.875V24.8125ZM7.03125 24.8125H9.49219V27.2734H7.03125V24.8125ZM2.10938 29.7344H4.57031V32.1953H2.10938V29.7344ZM11.9531 29.7344H14.4141V32.1953H11.9531V29.7344ZM21.7734 29.7344H24.2344V32.1953H21.7734V29.7344ZM7.03125 34.6562H9.49219V37.0938H7.03125V34.6562ZM16.875 34.6562H19.3125V37.0938H16.875V34.6562ZM26.6953 34.6562H29.1562V37.0938H26.6953V34.6562ZM21.7734 39.5547H24.2344V42.0156H21.7734V39.5547ZM11.9531 39.5547H14.4141V42.0156H11.9531V39.5547ZM2.10938 39.5547H4.57031V42.0156H2.10938V39.5547ZM7.03125 44.4766H9.49219V46.9375H7.03125V44.4766ZM16.875 44.4766H19.3125V46.9375H16.875V44.4766ZM26.6953 44.4766H29.1562V46.9375H26.6953V44.4766Z" fill="#1C1D20"/>
</svg>
