<svg preserveAspectRatio="none" width="100%" height="100%" overflow="visible" style="display: block;" viewBox="0 0 36 36" fill="none" xmlns="http://www.w3.org/2000/svg">
<g id="Frame 1565008655">
<g id="Vector">
<path d="M14.8595 25.0286C18.2663 20.576 20.9458 15.3452 20.9458 11.5886C20.9458 9.62526 19.5607 8.25491 17.7547 7.21364C17.7904 11.2958 16.3978 20.8679 14.8595 25.0286ZM3.68778 36C11.6728 33.2882 23.2477 26.9692 31.298 21.3239C31.9736 20.8517 32.5 20.4134 32.5 19.646C32.5 18.3123 30.0946 16.5246 28.927 15.813C22.5925 22.4989 9.98537 32.517 3.68778 36Z" fill="var(--fill-0, #FFDD05)"/>
<path d="M11.0946 30.3208C16.0181 26.865 23.1709 20.3629 25.5917 16.8247C26.1623 15.9924 26.5847 15.5102 26.5847 14.6392C26.5847 13.211 24.9441 12.1653 23.7642 11.4372C20.9367 18.2031 14.5848 26.628 11.0946 30.3208ZM15.5804 20.7345C16.2173 16.4617 15.8429 11.304 15.0298 8.06897C14.5877 6.30725 13.0238 4.31886 11.5765 3.69728C13.4735 9.16395 15.1019 16.9487 15.5804 20.7345Z" fill="var(--fill-0, #FFDD05)"/>
<path d="M14.1779 14.7407C12.6861 10.6474 8.96857 2.11412 3.5 0C7.05996 3.98918 12.3416 11.9053 14.1779 14.7407Z" fill="var(--fill-0, #FFDD05)"/>
</g>
</g>
</svg>
