<svg preserveAspectRatio="none" width="100%" height="100%" overflow="visible" style="display: block;" viewBox="0 0 36 32" fill="none" xmlns="http://www.w3.org/2000/svg">
<path id="Vector" fill-rule="evenodd" clip-rule="evenodd" d="M32.9948 31.9997L3.00444 31.9986C1.90484 31.9986 0.960993 31.4508 0.41177 30.4973C-0.137454 29.5438 -0.137446 28.4529 0.412932 27.4994L15.4093 1.49809C15.6664 1.03772 16.043 0.655498 16.4992 0.391845C16.9553 0.128191 17.4742 -0.00709602 18.0008 0.000286778C19.0992 0.000286778 20.0431 0.545785 20.5923 1.49809L35.5863 27.5005C35.8569 27.9537 35.9998 28.4719 36 28.9999C36.0002 29.528 35.8576 30.0462 35.5875 30.4996C35.3302 30.9604 34.9536 31.3429 34.4972 31.607C34.0409 31.871 33.5218 32.0067 32.9948 31.9997Z" fill="var(--fill-0, #007CC2)"/>
</svg>
