<svg preserveAspectRatio="none" width="100%" height="100%" overflow="visible" style="display: block;" viewBox="0 0 36 41" fill="none" xmlns="http://www.w3.org/2000/svg">
<g id="logo" clip-path="url(#clip0_489_1730)">
<path id="Vector" d="M31.5288 7.87068C31.4959 7.67309 31.3315 7.54137 31.1671 7.54137C31.0027 7.54137 28.1096 7.4755 28.1096 7.4755C28.1096 7.4755 25.6767 5.10442 25.4466 4.8739C25.2164 4.64337 24.7233 4.70924 24.5589 4.7751C24.5589 4.7751 24.0986 4.90683 23.3425 5.13735C23.211 4.70924 23.0137 4.21526 22.7507 3.68835C21.8959 2.04177 20.6137 1.15261 19.1014 1.15261C19.0027 1.15261 18.9041 1.15261 18.7726 1.18554C18.7397 1.11968 18.674 1.08675 18.6411 1.02088C17.9836 0.296385 17.1288 -0.0329317 16.1096 0C14.137 0.0658635 12.1644 1.48193 10.5863 4.01767C9.46849 5.79598 8.6137 8.03534 8.35068 9.78072C6.08219 10.4723 4.50411 10.9663 4.47123 10.9992C3.32055 11.3614 3.28767 11.3944 3.15616 12.4811C3.05753 13.3044 0.0328767 36.5213 0.0328767 36.5213L25.1507 40.8683L36.0329 38.1679C36 38.1349 31.5616 8.06827 31.5288 7.87068ZM22.0932 5.53253C21.5014 5.69719 20.8438 5.92771 20.1534 6.1253C20.1534 5.13735 20.0219 3.72129 19.5616 2.53574C21.0411 2.83213 21.7644 4.51165 22.0932 5.53253ZM18.8055 6.55341C17.4904 6.94859 16.0438 7.40964 14.5973 7.83775C14.9918 6.28996 15.7808 4.74217 16.7014 3.72129C17.063 3.35904 17.5562 2.93092 18.1151 2.66747C18.7068 3.82008 18.8384 5.43373 18.8055 6.55341ZM16.1425 1.31727C16.6027 1.31727 16.9973 1.41606 17.326 1.61365C16.8 1.91004 16.274 2.30522 15.7808 2.83213C14.5315 4.18233 13.5781 6.28996 13.1836 8.2988C12 8.66104 10.8164 9.02329 9.73151 9.35261C10.4219 6.19116 13.0849 1.41606 16.1425 1.31727Z" fill="var(--fill-0, #95BF47)"/>
<path id="Vector_2" d="M31.1671 7.54136C31.0027 7.54136 28.1096 7.4755 28.1096 7.4755C28.1096 7.4755 25.6767 5.10442 25.4466 4.8739C25.3479 4.7751 25.2493 4.74217 25.1178 4.70924V40.8353L36 38.1349C36 38.1349 31.5616 8.06827 31.5288 7.83775C31.4959 7.67309 31.3315 7.54136 31.1671 7.54136Z" fill="var(--fill-0, #5E8E3E)"/>
<path id="Vector_3" d="M19.0685 13.1398L17.8192 17.8819C17.8192 17.8819 16.4055 17.2233 14.7288 17.355C12.263 17.5197 12.263 19.0675 12.263 19.4627C12.3945 21.5703 17.9507 22.0313 18.2795 27.004C18.5096 30.9229 16.2082 33.5904 12.8877 33.788C8.87671 34.0514 6.67397 31.6803 6.67397 31.6803L7.52877 28.0578C7.52877 28.0578 9.73151 29.7374 11.5068 29.6056C12.6575 29.5398 13.0849 28.5847 13.0521 27.9261C12.8877 25.1598 8.35068 25.3245 8.05479 20.7799C7.82466 16.9598 10.3233 13.0739 15.8466 12.7446C17.9836 12.5799 19.0685 13.1398 19.0685 13.1398Z" fill="var(--fill-0, white)"/>
</g>
<defs>
<clipPath id="clip0_489_1730">
<rect width="36" height="41" fill="white"/>
</clipPath>
</defs>
</svg>
